<?xml version="1.0" encoding="UTF-8" standalone="no"?>
<!-- Created with Inkscape (http://www.inkscape.org/) -->

<svg
   xmlns:dc="http://purl.org/dc/elements/1.1/"
   xmlns:cc="http://creativecommons.org/ns#"
   xmlns:rdf="http://www.w3.org/1999/02/22-rdf-syntax-ns#"
   xmlns:svg="http://www.w3.org/2000/svg"
   xmlns="http://www.w3.org/2000/svg"
   xmlns:sodipodi="http://sodipodi.sourceforge.net/DTD/sodipodi-0.dtd"
   xmlns:inkscape="http://www.inkscape.org/namespaces/inkscape"
   width="210mm"
   height="297mm"
   viewBox="0 0 210 297"
   version="1.1"
   id="svg8"
   inkscape:export-filename="C:\Users\k280\Desktop\bitmap.png"
   inkscape:export-xdpi="176.11365"
   inkscape:export-ydpi="176.11365"
   inkscape:version="0.92.4 (5da689c313, 2019-01-14)"
   sodipodi:docname="wildfirespread_logo.svg">
  <defs
     id="defs2">
    <style
       id="style4747">

      .cls-3 {
        fill: url(#linear-gradient-1);
      }

      .cls-4 {
        fill: #fc9502;
      }

      .cls-5 {
        fill: #fce202;
      }
    </style>
    <linearGradient
       y2="0.188"
       x2="94.141"
       y1="255"
       x1="94.141"
       gradientUnits="userSpaceOnUse"
       id="linear-gradient-1">
      <stop
         id="stop4749"
         stop-color="#ff4c0d"
         offset="0" />
      <stop
         id="stop4751"
         stop-color="#fc9502"
         offset="1" />
    </linearGradient>
  </defs>
  <sodipodi:namedview
     id="base"
     pagecolor="#ffffff"
     bordercolor="#666666"
     borderopacity="1.0"
     inkscape:pageopacity="0.0"
     inkscape:pageshadow="2"
     inkscape:zoom="1.979899"
     inkscape:cx="397.00016"
     inkscape:cy="748.34036"
     inkscape:document-units="mm"
     inkscape:current-layer="layer1"
     showgrid="false"
     inkscape:window-width="1920"
     inkscape:window-height="1017"
     inkscape:window-x="-8"
     inkscape:window-y="-8"
     inkscape:window-maximized="1" />
  <metadata
     id="metadata5">
    <rdf:RDF>
      <cc:Work
         rdf:about="">
        <dc:format>image/svg+xml</dc:format>
        <dc:type
           rdf:resource="http://purl.org/dc/dcmitype/StillImage" />
        <dc:title></dc:title>
      </cc:Work>
    </rdf:RDF>
  </metadata>
  <g
     inkscape:label="Layer 1"
     inkscape:groupmode="layer"
     id="layer1">
    <g
       id="fire"
       transform="matrix(0.03531093,0,0,0.02946327,72.070935,88.348958)"
       inkscape:export-xdpi="300"
       inkscape:export-ydpi="300">
      <path
         class="cls-3"
         id="path-1"
         d="m 187.899,164.809 c -2.096,50.059 -43.325,90.003 -93.899,90.003 -51.915,0 -94,-43.5 -94,-94 0,-6.75 -0.121,-20.24 10,-43 6.057,-13.621 9.856,-22.178 12,-30 1.178,-4.299 3.469,-11.129 10,0 3.851,6.562 4,16 4,16 0,0 14.328,-10.995 24,-32 14.179,-30.793 2.866,-49.2 -1,-62 -1.338,-4.428 -2.178,-12.386 7,-9 9.352,3.451 34.076,20.758 47,39 18.445,26.035 25,51 25,51 0,0 5.906,-7.33 8,-15 2.365,-8.661 2.4,-17.239 9.999,-7.999 7.227,8.787 17.96,25.3 24.001,40.999 10.969,28.509 7.899,55.997 7.899,55.997 z"
         inkscape:connector-curvature="0"
         style="fill:url(#linear-gradient-1);fill-rule:evenodd" />
      <path
         class="cls-4"
         id="path-2"
         d="m 94,254.812 c -35.899,0 -65,-29.101 -65,-65 0,-21.661 8.729,-34.812 26.896,-52.646 11.632,-11.419 22.519,-25.444 27.146,-34.994 0.911,-1.88 2.984,-11.677 10.977,-0.206 4.193,6.016 10.766,16.715 14.981,25.846 7.266,15.743 9,31 9,31 0,0 7.121,-4.196 12,-15 1.573,-3.482 4.753,-16.664 13.643,-3.484 6.523,9.672 15.484,27.062 15.357,49.484 0,35.899 -29.102,65 -65,65 z"
         inkscape:connector-curvature="0"
         style="fill:#fc9502;fill-rule:evenodd" />
      <path
         class="cls-5"
         id="path-3"
         d="m 95,183.812 c 9.25,0 9.25,17.129 21,40 7.824,15.229 -3.879,31 -21,31 -17.121,0 -26,-13.879 -26,-31 0,-17.12 16.75,-40 26,-40 z"
         inkscape:connector-curvature="0"
         style="fill:#fce202;fill-rule:evenodd" />
    </g>
    <flowRoot
       xml:space="preserve"
       id="flowRoot4774"
       style="font-style:normal;font-weight:normal;font-size:40px;line-height:1.25;font-family:sans-serif;letter-spacing:0px;word-spacing:0px;fill:#ff0000;fill-opacity:1;stroke:#000000;stroke-opacity:1.0;"
       transform="matrix(0.10186582,0,0,0.14295585,107.36077,70.735974)"
       inkscape:export-xdpi="300"
       inkscape:export-ydpi="300"><flowRegion
         id="flowRegion4776"
         style="fill:#ff0000;stroke:#000000;stroke-opacity:1.0;"><rect
           id="rect4778"
           width="312.92679"
           height="49.888737"
           x="-271.42856"
           y="128.23398"
           style="fill:#ff0000;stroke:#000000;stroke-opacity:1.0;" /></flowRegion><flowPara
         id="flowPara4780"
         style="font-style:normal;font-variant:normal;font-weight:normal;font-stretch:normal;font-size:39.99968338px;font-family:'Arial Rounded MT Bold';-inkscape-font-specification:'Arial Rounded MT Bold, Normal';font-variant-ligatures:normal;font-variant-caps:normal;font-variant-numeric:normal;font-feature-settings:normal;text-align:start;writing-mode:lr-tb;text-anchor:start;fill:#ff0000;stroke:#000000;stroke-opacity:1.0;">WildFireSpread</flowPara></flowRoot>    <flowRoot
       xml:space="preserve"
       id="flowRoot4788"
       style="fill:black;fill-opacity:1;stroke:none;font-family:sans-serif;font-style:normal;font-weight:normal;font-size:40px;line-height:1.25;letter-spacing:0px;word-spacing:0px"><flowRegion
         id="flowRegion4790"><rect
           id="rect4792"
           width="185.36299"
           height="66.670067"
           x="243.95184"
           y="315.40781" /></flowRegion><flowPara
         id="flowPara4794"></flowPara></flowRoot>  </g>
</svg>
