<?xml version="1.0" encoding="UTF-8" standalone="no"?>
<!-- Created with Inkscape (http://www.inkscape.org/) -->

<svg
   xmlns:dc="http://purl.org/dc/elements/1.1/"
   xmlns:cc="http://creativecommons.org/ns#"
   xmlns:rdf="http://www.w3.org/1999/02/22-rdf-syntax-ns#"
   xmlns:svg="http://www.w3.org/2000/svg"
   xmlns="http://www.w3.org/2000/svg"
   xmlns:sodipodi="http://sodipodi.sourceforge.net/DTD/sodipodi-0.dtd"
   xmlns:inkscape="http://www.inkscape.org/namespaces/inkscape"
   width="210mm"
   height="297mm"
   viewBox="0 0 210 297"
   version="1.1"
   id="svg8"
   inkscape:export-filename="C:\Users\k280\Desktop\bitmap.png"
   inkscape:export-xdpi="176.11365"
   inkscape:export-ydpi="176.11365"
   inkscape:version="0.92.4 (5da689c313, 2019-01-14)"
   sodipodi:docname="wildfirespread_logo.svg">
  <defs
     id="defs2">
    <style
       id="style4747">

      .cls-3 {
        fill: url(#linear-gradient-1);
      }

      .cls-4 {
        fill: #fc9502;
      }

      .cls-5 {
        fill: #fce202;
      }
    </style>
    <linearGradient
       y2="0.188"
       x2="94.141"
       y1="255"
       x1="94.141"
       gradientUnits="userSpaceOnUse"
       id="linear-gradient-1">
      <stop
         id="stop4749"
         stop-color="#ff4c0d"
         offset="0" />
      <stop
         id="stop4751"
         stop-color="#fc9502"
         offset="1" />
    </linearGradient>
  </defs>
  <sodipodi:namedview
     id="base"
     pagecolor="#ffffff"
     bordercolor="#666666"
     borderopacity="1.0"
     inkscape:pageopacity="0.0"
     inkscape:pageshadow="2"
     inkscape:zoom="5.6"
     inkscape:cx="365.95973"
     inkscape:cy="772.6604"
     inkscape:document-units="mm"
     inkscape:current-layer="layer1"
     showgrid="false"
     inkscape:window-width="1920"
     inkscape:window-height="1017"
     inkscape:window-x="-8"
     inkscape:window-y="-8"
     inkscape:window-maximized="1" />
  <metadata
     id="metadata5">
    <rdf:RDF>
      <cc:Work
         rdf:about="">
        <dc:format>image/svg+xml</dc:format>
        <dc:type
           rdf:resource="http://purl.org/dc/dcmitype/StillImage" />
        <dc:title />
      </cc:Work>
    </rdf:RDF>
  </metadata>
  <g
     inkscape:label="Layer 1"
     inkscape:groupmode="layer"
     id="layer1">
    <g
       id="fire"
       transform="matrix(0.03104527,0,0,0.02946327,73.015875,88.15997)"
       inkscape:export-xdpi="300"
       inkscape:export-ydpi="300">
      <path
         class="cls-3"
         id="path-1"
         d="m 187.899,164.809 c -2.096,50.059 -43.325,90.003 -93.899,90.003 -51.915,0 -94,-43.5 -94,-94 0,-6.75 -0.121,-20.24 10,-43 6.057,-13.621 9.856,-22.178 12,-30 1.178,-4.299 3.469,-11.129 10,0 3.851,6.562 4,16 4,16 0,0 14.328,-10.995 24,-32 14.179,-30.793 2.866,-49.2 -1,-62 -1.338,-4.428 -2.178,-12.386 7,-9 9.352,3.451 34.076,20.758 47,39 18.445,26.035 25,51 25,51 0,0 5.906,-7.33 8,-15 2.365,-8.661 2.4,-17.239 9.999,-7.999 7.227,8.787 17.96,25.3 24.001,40.999 10.969,28.509 7.899,55.997 7.899,55.997 z"
         inkscape:connector-curvature="0"
         style="fill:url(#linear-gradient-1);fill-rule:evenodd" />
      <path
         class="cls-4"
         id="path-2"
         d="m 94,254.812 c -35.899,0 -65,-29.101 -65,-65 0,-21.661 8.729,-34.812 26.896,-52.646 11.632,-11.419 22.519,-25.444 27.146,-34.994 0.911,-1.88 2.984,-11.677 10.977,-0.206 4.193,6.016 10.766,16.715 14.981,25.846 7.266,15.743 9,31 9,31 0,0 7.121,-4.196 12,-15 1.573,-3.482 4.753,-16.664 13.643,-3.484 6.523,9.672 15.484,27.062 15.357,49.484 0,35.899 -29.102,65 -65,65 z"
         inkscape:connector-curvature="0"
         style="fill:#fc9502;fill-rule:evenodd" />
      <path
         class="cls-5"
         id="path-3"
         d="m 95,183.812 c 9.25,0 9.25,17.129 21,40 7.824,15.229 -3.879,31 -21,31 -17.121,0 -26,-13.879 -26,-31 0,-17.12 16.75,-40 26,-40 z"
         inkscape:connector-curvature="0"
         style="fill:#fce202;fill-rule:evenodd" />
    </g>
    <flowRoot
       xml:space="preserve"
       id="flowRoot4774"
       style="font-style:italic;font-variant:normal;font-weight:normal;font-stretch:normal;font-size:40.0006752px;line-height:1.25;font-family:'Brush Script MT';-inkscape-font-specification:'Brush Script MT, Italic';font-variant-ligatures:normal;font-variant-caps:normal;font-variant-numeric:normal;font-feature-settings:normal;text-align:start;letter-spacing:0px;word-spacing:0px;writing-mode:lr-tb;text-anchor:start;fill:#ff0000;fill-opacity:1;stroke:#000000;stroke-width:1.00269806;stroke-miterlimit:4;stroke-dasharray:none;stroke-opacity:1"
       transform="matrix(0.11364664,0,0,0.17256637,110.72781,66.416015)"
       inkscape:export-xdpi="300"
       inkscape:export-ydpi="300"><flowRegion
         id="flowRegion4776"
         style="font-style:italic;font-variant:normal;font-weight:normal;font-stretch:normal;font-size:40.0006752px;font-family:'Brush Script MT';-inkscape-font-specification:'Brush Script MT, Italic';font-variant-ligatures:normal;font-variant-caps:normal;font-variant-numeric:normal;font-feature-settings:normal;text-align:start;writing-mode:lr-tb;text-anchor:start;fill:#ff0000;stroke:#000000;stroke-width:1.00269806;stroke-miterlimit:4;stroke-dasharray:none;stroke-opacity:1"><rect
           id="rect4778"
           width="424.70648"
           height="50.549728"
           x="-271.42856"
           y="128.23398"
           style="font-style:italic;font-variant:normal;font-weight:normal;font-stretch:normal;font-size:40.0006752px;font-family:'Brush Script MT';-inkscape-font-specification:'Brush Script MT, Italic';font-variant-ligatures:normal;font-variant-caps:normal;font-variant-numeric:normal;font-feature-settings:normal;text-align:start;writing-mode:lr-tb;text-anchor:start;fill:#ff0000;stroke:#000000;stroke-width:1.00269806;stroke-miterlimit:4;stroke-dasharray:none;stroke-opacity:1" /></flowRegion><flowPara
         id="flowPara4780"
         style="font-style:italic;font-variant:normal;font-weight:normal;font-stretch:normal;font-size:40.0006752px;font-family:'Brush Script MT';-inkscape-font-specification:'Brush Script MT, Italic';font-variant-ligatures:normal;font-variant-caps:normal;font-variant-numeric:normal;font-feature-settings:normal;text-align:start;writing-mode:lr-tb;text-anchor:start;fill:#ff0000;stroke:#000000;stroke-width:1.00269806;stroke-miterlimit:4;stroke-dasharray:none;stroke-opacity:1">Wild Fire Speard</flowPara></flowRoot>    <flowRoot
       xml:space="preserve"
       id="flowRoot4788"
       style="font-style:normal;font-weight:normal;font-size:40px;line-height:1.25;font-family:sans-serif;letter-spacing:0px;word-spacing:0px;fill:#000000;fill-opacity:1;stroke:none"><flowRegion
         id="flowRegion4790"><rect
           id="rect4792"
           width="185.36299"
           height="66.670067"
           x="243.95184"
           y="315.40781" /></flowRegion><flowPara
         id="flowPara4794" /></flowRoot>    <flowRoot
       xml:space="preserve"
       id="flowRoot4763"
       style="font-style:normal;font-weight:normal;font-size:40px;line-height:1.25;font-family:sans-serif;letter-spacing:0px;word-spacing:0px;fill:#000000;fill-opacity:1;stroke:none"><flowRegion
         id="flowRegion4765"><rect
           id="rect4767"
           width="174.46428"
           height="59.107143"
           x="269.10715"
           y="321.98398" /></flowRegion><flowPara
         id="flowPara4769"></flowPara></flowRoot>    <g
       id="g4895"
       transform="matrix(0.01087096,0,0,0.00980612,108.2127,87.340367)">
      <path
         id="path4806"
         d="m 835.7,313.3 c -1.4,-5.1 -6.9,-9.3 -12.2,-9.3 h -56.8 c -5.3,0 -10.8,4.2 -12.2,9.3 l -12.7,46 c -1.4,5.1 1.8,9.3 7.1,9.3 h 92.5 c 5.3,0 8.5,-4.2 7.1,-9.3 z"
         inkscape:connector-curvature="0"
         style="fill:#ff8189" />
      <path
         id="path4808"
         d="m 192.7,293.5 h 48.6 V 342 h -48.6 z"
         inkscape:connector-curvature="0"
         style="fill:#a4a9ad" />
      <path
         id="path4810"
         fill=""
         d="m 192.7,293.5 h 48.6 v 21.2 h -48.6 z"
         inkscape:connector-curvature="0" />
      <path
         id="path4812"
         d="m 310.2,293.5 h 48.6 V 342 h -48.6 z"
         inkscape:connector-curvature="0"
         style="fill:#a4a9ad" />
      <path
         id="path4814"
         fill=""
         d="m 310.2,293.5 h 48.6 v 21.2 h -48.6 z"
         inkscape:connector-curvature="0" />
      <path
         id="path4816"
         d="m 427.6,293.5 h 48.6 V 342 h -48.6 z"
         inkscape:connector-curvature="0"
         style="fill:#a4a9ad" />
      <path
         id="path4818"
         fill=""
         d="m 427.6,293.5 h 48.6 v 21.2 h -48.6 z"
         inkscape:connector-curvature="0" />
      <path
         id="path4820"
         d="M 95.2,695.1 V 390.2 c 0,-26.5 21.7,-48.1 48.1,-48.1 h 737.1 c 26.5,0 48.1,21.7 48.1,48.1 V 695 H 95.2 Z"
         inkscape:connector-curvature="0"
         style="fill:#ff5959" />
      <path
         id="path4822"
         d="m 95.2,530.4 h 833.4 v 37.8 H 95.2 Z"
         inkscape:connector-curvature="0"
         style="fill:#d1d3d3" />
      <path
         id="path4824"
         d="m 958.9,709.6 c 0,9.9 -8.1,17.9 -17.9,17.9 h -40.3 c -9.9,0 -17.9,-8.1 -17.9,-17.9 v -29.1 c 0,-9.9 8.1,-17.9 17.9,-17.9 H 941 c 9.9,0 17.9,8.1 17.9,17.9 z m -825.6,0 c 0,9.9 -8.1,17.9 -17.9,17.9 H 82.7 c -9.9,0 -17.9,-8.1 -17.9,-17.9 v -29.1 c 0,-9.9 8.1,-17.9 17.9,-17.9 h 32.6 c 9.9,0 17.9,8.1 17.9,17.9 z"
         inkscape:connector-curvature="0"
         style="fill:#a4a9ad" />
      <path
         id="path4826"
         fill=""
         d="m 410.7,695.1 c 0,-64.7 -52.5,-117.2 -117.2,-117.2 -64.7,0 -117.2,52.5 -117.2,117.2 z"
         inkscape:connector-curvature="0" />
      <path
         id="path4828"
         d="m 293.4,695.1 m -97,0 a 97,97 0 1 0 194,0 97,97 0 1 0 -194,0 z"
         inkscape:connector-curvature="0"
         style="fill:#333e48" />
      <path
         id="path4830"
         d="m 293.4,695.1 m -49.2,0 a 49.2,49.2 0 1 0 98.4,0 49.2,49.2 0 1 0 -98.4,0 z"
         inkscape:connector-curvature="0"
         style="fill:#a4a9ad" />
      <path
         id="path4832"
         fill=""
         d="m 847.5,695.1 c 0,-64.7 -52.5,-117.2 -117.2,-117.2 -64.7,0 -117.2,52.5 -117.2,117.2 z"
         inkscape:connector-curvature="0" />
      <path
         id="path4834"
         d="m 730.3,695.1 m -97,0 a 97,97 0 1 0 194,0 97,97 0 1 0 -194,0 z"
         inkscape:connector-curvature="0"
         style="fill:#333e48" />
      <path
         id="path4836"
         d="m 730.3,695.1 m -49.2,0 a 49.2,49.2 0 1 0 98.4,0 49.2,49.2 0 1 0 -98.4,0 z"
         inkscape:connector-curvature="0"
         style="fill:#a4a9ad" />
      <path
         id="path4838"
         d="m 730.3,251.2 c 0,-10.6 -8.7,-19.3 -19.3,-19.3 H 159.5 c -10.6,0 -19.3,8.7 -19.3,19.3 v 23.1 c 0,10.6 8.7,19.3 19.3,19.3 h 551.6 c 10.6,0 19.3,-8.7 19.3,-19.3 z"
         inkscape:connector-curvature="0"
         style="fill:#d1d3d3" />
      <path
         id="path4840"
         d="m 739.9,463.9 c 0,8.5 6.9,15.4 15.4,15.4 h 112.1 c 8.5,0 15.4,-6.9 15.4,-15.4 v -66.8 c 0,-8.5 -6.9,-15.4 -15.4,-15.4 H 755.3 c -8.5,0 -15.4,6.9 -15.4,15.4 z"
         inkscape:connector-curvature="0"
         style="fill:#333e48" />
      <path
         id="path4842"
         fill=""
         d="M 867.4,381.8 H 755.3 c -8.5,0 -15.4,6.9 -15.4,15.4 v 19.9 c 0,-8.5 6.9,-15.4 15.4,-15.4 h 112.1 c 8.5,0 15.4,6.9 15.4,15.4 v -19.9 c 0.1,-8.5 -6.9,-15.4 -15.4,-15.4 z"
         inkscape:connector-curvature="0" />
      <path
         id="path4844"
         d="m 599.6,463.9 c 0,8.5 6.9,15.4 15.4,15.4 h 65.9 c 8.5,0 15.4,-6.9 15.4,-15.4 v -66.8 c 0,-8.5 -6.9,-15.4 -15.4,-15.4 H 615 c -8.5,0 -15.4,6.9 -15.4,15.4 z"
         inkscape:connector-curvature="0"
         style="fill:#333e48" />
      <path
         id="path4846"
         fill=""
         d="M 680.9,381.8 H 615 c -8.5,0 -15.4,6.9 -15.4,15.4 v 19.9 c 0,-8.5 6.9,-15.4 15.4,-15.4 h 65.9 c 8.5,0 15.4,6.9 15.4,15.4 v -19.9 c 0,-8.5 -6.9,-15.4 -15.4,-15.4 z"
         inkscape:connector-curvature="0" />
      <path
         id="path4848"
         d="M 439.6,507.3 H 584.2 V 695.1 H 439.6 Z"
         inkscape:connector-curvature="0"
         style="fill:#a4a9ad" />
      <path
         id="path4850"
         d="m 483.2,556.7 m -13.5,0 a 13.5,13.5 0 1 0 27,0 13.5,13.5 0 1 0 -27,0 z"
         inkscape:connector-curvature="0"
         style="fill:#d1d3d3" />
      <path
         id="path4852"
         d="m 540.5,556.7 m -13.5,0 a 13.5,13.5 0 1 0 27,0 13.5,13.5 0 1 0 -27,0 z"
         inkscape:connector-curvature="0"
         style="fill:#d1d3d3" />
      <path
         id="path4854"
         d="m 540.5,618.5 h -57.3 c -8,0 -14.4,-6.5 -14.4,-14.4 0,-7.9 6.5,-14.4 14.4,-14.4 h 57.3 c 8,0 14.4,6.5 14.4,14.4 0,7.9 -6.4,14.4 -14.4,14.4 z m 0,44.1 h -57.3 c -8,0 -14.4,-6.5 -14.4,-14.4 0,-7.9 6.5,-14.4 14.4,-14.4 h 57.3 c 8,0 14.4,6.5 14.4,14.4 0,7.9 -6.4,14.4 -14.4,14.4 z"
         inkscape:connector-curvature="0"
         style="fill:#d1d3d3" />
      <path
         id="path4856"
         d="m 928.6,662.6 h -41.2 c -5.3,0 -9.6,-4.3 -9.6,-9.6 v -24.4 c 0,-5.3 4.3,-9.6 9.6,-9.6 h 41.2 z m -833.4,0 h 41.2 c 5.3,0 9.6,-4.3 9.6,-9.6 v -24.4 c 0,-5.3 -4.3,-9.6 -9.6,-9.6 H 95.2 Z m 90.2,-246.5 h 317 V 445 h -317 z"
         inkscape:connector-curvature="0"
         style="fill:#ffb819" />
      <path
         id="path4858"
         d="m 528.5,405.5 c 0,-5.3 -4.3,-9.6 -9.6,-9.6 h -32.8 c -5.3,0 -9.6,4.3 -9.6,9.6 v 50.1 c 0,5.3 4.3,9.6 9.6,9.6 h 32.8 c 5.3,0 9.6,-4.3 9.6,-9.6 z m -317.1,0 c 0,-5.3 -4.3,-9.6 -9.6,-9.6 H 169 c -5.3,0 -9.6,4.3 -9.6,9.6 v 50.1 c 0,5.3 4.3,9.6 9.6,9.6 h 32.8 c 5.3,0 9.6,-4.3 9.6,-9.6 z"
         inkscape:connector-curvature="0"
         style="fill:#d1d3d3" />
    </g>
  </g>
</svg>
